<svg width="19" height="19" viewBox="0 0 19 19" fill="none" xmlns="http://www.w3.org/2000/svg">
<path fill-rule="evenodd" clip-rule="evenodd" d="M10.0208 12.8492L11.435 14.2635L8.6066 17.0919C6.65398 19.0445 3.48816 19.0445 1.53553 17.0919C-0.417088 15.1393 -0.417088 11.9734 1.53553 10.0208L4.36396 7.19239L5.77817 8.6066L2.94975 11.435C1.77817 12.6066 1.77817 14.5061 2.94975 15.6777C4.12132 16.8492 6.02082 16.8492 7.19239 15.6777L10.0208 12.8492ZM8.6066 5.77817L7.19239 4.36396L10.0208 1.53553C11.9734 -0.417087 15.1393 -0.417088 17.0919 1.53553C19.0445 3.48816 19.0445 6.65398 17.0919 8.6066L14.2635 11.435L12.8492 10.0208L15.6777 7.19239C16.8492 6.02081 16.8492 4.12132 15.6777 2.94975C14.5061 1.77817 12.6066 1.77817 11.435 2.94975L8.6066 5.77817ZM12.1421 5.07107L5.07107 12.1421L6.48528 13.5563L13.5563 6.48528L12.1421 5.07107Z" fill="#586ED3"/>
</svg>
